{
    "asset" : {
        "generator" : "Khronos glTF Blender I/O v1.5.17",
        "version" : "2.0"
    },
    "scene" : 0,
    "scenes" : [
        {
            "name" : "Scene",
            "nodes" : [
                0,
                1,
                2,
                3
            ]
        }
    ],
    "nodes" : [
        {
            "mesh" : 0,
            "name" : "Cube"
        },
        {
            "name" : "Light",
            "rotation" : [
                0.16907575726509094,
                0.7558803558349609,
                -0.27217137813568115,
                0.570947527885437
            ],
            "translation" : [
                4.076245307922363,
                5.903861999511719,
                -1.0054539442062378
            ]
        },
        {
            "name" : "Camera",
            "rotation" : [
                0.483536034822464,
                0.33687159419059753,
                -0.20870360732078552,
                0.7804827094078064
            ],
            "translation" : [
                7.358891487121582,
                4.958309173583984,
                6.925790786743164
            ]
        },
        {
            "mesh" : 1,
            "name" : "BezierCurve",
            "translation" : [
                2.3028740882873535,
                1.176719307899475,
                0.10436475276947021
            ]
        }
    ],
    "materials" : [
        {
            "doubleSided" : true,
            "name" : "Material",
            "pbrMetallicRoughness" : {
                "baseColorFactor" : [
                    0.800000011920929,
                    0.800000011920929,
                    0.800000011920929,
                    1
                ],
                "metallicFactor" : 0,
                "roughnessFactor" : 0.4000000059604645
            }
        }
    ],
    "meshes" : [
        {
            "name" : "Cube",
            "primitives" : [
                {
                    "attributes" : {
                        "POSITION" : 0,
                        "NORMAL" : 1,
                        "TEXCOORD_0" : 2
                    },
                    "indices" : 3,
                    "material" : 0
                }
            ]
        },
        {
            "name" : "BezierCurve",
            "primitives" : [
                {
                    "attributes" : {
                        "POSITION" : 4,
                        "NORMAL" : 5,
                        "TEXCOORD_0" : 6
                    },
                    "indices" : 7
                }
            ]
        }
    ],
    "accessors" : [
        {
            "bufferView" : 0,
            "componentType" : 5126,
            "count" : 955,
            "max" : [
                1.5681431293487549,
                0.9907844066619873,
                5.2915425300598145
            ],
            "min" : [
                0,
                -1.1255743503570557,
                2.8802056312561035
            ],
            "type" : "VEC3"
        },
        {
            "bufferView" : 1,
            "componentType" : 5126,
            "count" : 955,
            "type" : "VEC3"
        },
        {
            "bufferView" : 2,
            "componentType" : 5126,
            "count" : 955,
            "type" : "VEC2"
        },
        {
            "bufferView" : 3,
            "componentType" : 5123,
            "count" : 1524,
            "type" : "SCALAR"
        },
        {
            "bufferView" : 4,
            "componentType" : 5126,
            "count" : 481,
            "max" : [
                -0.15370717644691467,
                -0.6977499723434448,
                2.5311484336853027
            ],
            "min" : [
                -1.6407221555709839,
                -1.3316762447357178,
                -0.2261432707309723
            ],
            "type" : "VEC3"
        },
        {
            "bufferView" : 5,
            "componentType" : 5126,
            "count" : 481,
            "type" : "VEC3"
        },
        {
            "bufferView" : 6,
            "componentType" : 5126,
            "count" : 481,
            "type" : "VEC2"
        },
        {
            "bufferView" : 7,
            "componentType" : 5123,
            "count" : 2592,
            "type" : "SCALAR"
        }
    ],
    "bufferViews" : [
        {
            "buffer" : 0,
            "byteLength" : 11460,
            "byteOffset" : 0
        },
        {
            "buffer" : 0,
            "byteLength" : 11460,
            "byteOffset" : 11460
        },
        {
            "buffer" : 0,
            "byteLength" : 7640,
            "byteOffset" : 22920
        },
        {
            "buffer" : 0,
            "byteLength" : 3048,
            "byteOffset" : 30560
        },
        {
            "buffer" : 0,
            "byteLength" : 5772,
            "byteOffset" : 33608
        },
        {
            "buffer" : 0,
            "byteLength" : 5772,
            "byteOffset" : 39380
        },
        {
            "buffer" : 0,
            "byteLength" : 3848,
            "byteOffset" : 45152
        },
        {
            "buffer" : 0,
            "byteLength" : 5184,
            "byteOffset" : 49000
        }
    ],
    "buffers" : [
        {
            "byteLength" : 54184,
            "uri" : "data:application/octet-stream;base64,"
        }
    ]
}
