{
    "asset" : {
        "generator" : "Khronos glTF Blender I/O v1.6.16",
        "version" : "2.0"
    },
    "extensionsUsed" : [
        "KHR_materials_transmission"
    ],
    "scene" : 0,
    "scenes" : [
        {
            "name" : "Scene",
            "nodes" : [
                0,
                1,
                2,
                3
            ]
        }
    ],
    "nodes" : [
        {
            "mesh" : 0,
            "name" : "Solar Panel"
        },
        {
            "name" : "Light",
            "rotation" : [
                0.16907575726509094,
                0.7558803558349609,
                -0.27217137813568115,
                0.570947527885437
            ],
            "translation" : [
                4.076245307922363,
                5.903861999511719,
                -1.0054539442062378
            ]
        },
        {
            "name" : "Camera",
            "rotation" : [
                0.483536034822464,
                0.33687159419059753,
                -0.20870360732078552,
                0.7804827094078064
            ],
            "translation" : [
                7.358891487121582,
                4.958309173583984,
                6.925790786743164
            ]
        },
        {
            "mesh" : 1,
            "name" : "Secondary Solar Panel"
        }
    ],
    "materials" : [
        {
            "doubleSided" : true,
            "name" : "Metal Mat",
            "pbrMetallicRoughness" : {
                "baseColorFactor" : [
                    0.17877274751663208,
                    0.17877274751663208,
                    0.17877274751663208,
                    1
                ],
                "roughnessFactor" : 0.10000000149011612
            }
        },
        {
            "doubleSided" : true,
            "extensions" : {
                "KHR_materials_transmission" : {
                    "transmissionFactor" : 1
                }
            },
            "name" : "Glass part",
            "pbrMetallicRoughness" : {
                "baseColorFactor" : [
                    0.051744244992733,
                    0.02707005850970745,
                    0.8000000715255737,
                    1
                ],
                "metallicFactor" : 0,
                "roughnessFactor" : 0
            }
        }
    ],
    "meshes" : [
        {
            "name" : "Cube",
            "primitives" : [
                {
                    "attributes" : {
                        "POSITION" : 0,
                        "NORMAL" : 1,
                        "TEXCOORD_0" : 2
                    },
                    "indices" : 3,
                    "material" : 0
                },
                {
                    "attributes" : {
                        "POSITION" : 4,
                        "NORMAL" : 5,
                        "TEXCOORD_0" : 6
                    },
                    "indices" : 7,
                    "material" : 1
                }
            ]
        },
        {
            "name" : "Cube.003",
            "primitives" : [
                {
                    "attributes" : {
                        "POSITION" : 8,
                        "NORMAL" : 9,
                        "TEXCOORD_0" : 10
                    },
                    "indices" : 11,
                    "material" : 0
                },
                {
                    "attributes" : {
                        "POSITION" : 12,
                        "NORMAL" : 13,
                        "TEXCOORD_0" : 14
                    },
                    "indices" : 15,
                    "material" : 1
                }
            ]
        }
    ],
    "accessors" : [
        {
            "bufferView" : 0,
            "componentType" : 5126,
            "count" : 1018,
            "max" : [
                2.1520328521728516,
                1,
                18.699647903442383
            ],
            "min" : [
                -2.1520328521728516,
                -0.7004414200782776,
                -5
            ],
            "type" : "VEC3"
        },
        {
            "bufferView" : 1,
            "componentType" : 5126,
            "count" : 1018,
            "type" : "VEC3"
        },
        {
            "bufferView" : 2,
            "componentType" : 5126,
            "count" : 1018,
            "type" : "VEC2"
        },
        {
            "bufferView" : 3,
            "componentType" : 5123,
            "count" : 1968,
            "type" : "SCALAR"
        },
        {
            "bufferView" : 4,
            "componentType" : 5126,
            "count" : 27018,
            "max" : [
                1.8743722438812256,
                0.959933876991272,
                10.880810737609863
            ],
            "min" : [
                -1.8743722438812256,
                0.9435056447982788,
                -4.8808088302612305
            ],
            "type" : "VEC3"
        },
        {
            "bufferView" : 5,
            "componentType" : 5126,
            "count" : 27018,
            "type" : "VEC3"
        },
        {
            "bufferView" : 6,
            "componentType" : 5126,
            "count" : 27018,
            "type" : "VEC2"
        },
        {
            "bufferView" : 7,
            "componentType" : 5123,
            "count" : 44712,
            "type" : "SCALAR"
        },
        {
            "bufferView" : 8,
            "componentType" : 5126,
            "count" : 709,
            "max" : [
                3.993563413619995,
                0.3333333134651184,
                11.00000286102295
            ],
            "min" : [
                -3.993563413619995,
                -0.3333333134651184,
                -5
            ],
            "type" : "VEC3"
        },
        {
            "bufferView" : 9,
            "componentType" : 5126,
            "count" : 709,
            "type" : "VEC3"
        },
        {
            "bufferView" : 10,
            "componentType" : 5126,
            "count" : 709,
            "type" : "VEC2"
        },
        {
            "bufferView" : 11,
            "componentType" : 5123,
            "count" : 1296,
            "type" : "SCALAR"
        },
        {
            "bufferView" : 12,
            "componentType" : 5126,
            "count" : 25653,
            "max" : [
                3.8743722438812256,
                0.2932671308517456,
                10.88081169128418
            ],
            "min" : [
                -3.8743722438812256,
                0.2768389582633972,
                -4.8808088302612305
            ],
            "type" : "VEC3"
        },
        {
            "bufferView" : 13,
            "componentType" : 5126,
            "count" : 25653,
            "type" : "VEC3"
        },
        {
            "bufferView" : 14,
            "componentType" : 5126,
            "count" : 25653,
            "type" : "VEC2"
        },
        {
            "bufferView" : 15,
            "componentType" : 5123,
            "count" : 43092,
            "type" : "SCALAR"
        }
    ],
    "bufferViews" : [
        {
            "buffer" : 0,
            "byteLength" : 12216,
            "byteOffset" : 0
        },
        {
            "buffer" : 0,
            "byteLength" : 12216,
            "byteOffset" : 12216
        },
        {
            "buffer" : 0,
            "byteLength" : 8144,
            "byteOffset" : 24432
        },
        {
            "buffer" : 0,
            "byteLength" : 3936,
            "byteOffset" : 32576
        },
        {
            "buffer" : 0,
            "byteLength" : 324216,
            "byteOffset" : 36512
        },
        {
            "buffer" : 0,
            "byteLength" : 324216,
            "byteOffset" : 360728
        },
        {
            "buffer" : 0,
            "byteLength" : 216144,
            "byteOffset" : 684944
        },
        {
            "buffer" : 0,
            "byteLength" : 89424,
            "byteOffset" : 901088
        },
        {
            "buffer" : 0,
            "byteLength" : 8508,
            "byteOffset" : 990512
        },
        {
            "buffer" : 0,
            "byteLength" : 8508,
            "byteOffset" : 999020
        },
        {
            "buffer" : 0,
            "byteLength" : 5672,
            "byteOffset" : 1007528
        },
        {
            "buffer" : 0,
            "byteLength" : 2592,
            "byteOffset" : 1013200
        },
        {
            "buffer" : 0,
            "byteLength" : 307836,
            "byteOffset" : 1015792
        },
        {
            "buffer" : 0,
            "byteLength" : 307836,
            "byteOffset" : 1323628
        },
        {
            "buffer" : 0,
            "byteLength" : 205224,
            "byteOffset" : 1631464
        },
        {
            "buffer" : 0,
            "byteLength" : 86184,
            "byteOffset" : 1836688
        }
    ],
    "buffers" : [
        {
            "byteLength" : 1922872,
            "uri" : "data:application/octet-stream;base64,"
        }
    ]
}
