{
    "asset" : {
        "generator" : "Khronos glTF Blender I/O v1.6.16",
        "version" : "2.0"
    },
    "scene" : 0,
    "scenes" : [
        {
            "name" : "Scene",
            "nodes" : [
                0,
                1,
                2
            ]
        }
    ],
    "nodes" : [
        {
            "name" : "Camera",
            "rotation" : [
                0.48353609442710876,
                0.3368716239929199,
                -0.20870362222194672,
                0.7804826498031616
            ],
            "translation" : [
                7.358891487121582,
                4.958309173583984,
                6.925790786743164
            ]
        },
        {
            "mesh" : 0,
            "name" : "Torus",
            "rotation" : [
                0,
                0,
                -0.7071067094802856,
                0.7071068286895752
            ]
        },
        {
            "mesh" : 1,
            "name" : "Tire part",
            "rotation" : [
                0,
                0,
                -0.7071067094802856,
                0.7071068286895752
            ]
        }
    ],
    "materials" : [
        {
            "doubleSided" : true,
            "name" : "Material.001",
            "pbrMetallicRoughness" : {
                "baseColorFactor" : [
                    0.06045069918036461,
                    0.06045069918036461,
                    0.06045069918036461,
                    1
                ],
                "metallicFactor" : 0,
                "roughnessFactor" : 0.9256198406219482
            }
        },
        {
            "doubleSided" : true,
            "name" : "Tire",
            "pbrMetallicRoughness" : {
                "baseColorFactor" : [
                    0.004000000189989805,
                    0.004000000189989805,
                    0.004000000189989805,
                    1
                ],
                "metallicFactor" : 0,
                "roughnessFactor" : 0.5
            }
        }
    ],
    "meshes" : [
        {
            "name" : "Torus",
            "primitives" : [
                {
                    "attributes" : {
                        "POSITION" : 0,
                        "NORMAL" : 1,
                        "TEXCOORD_0" : 2
                    },
                    "indices" : 3,
                    "material" : 0
                },
                {
                    "attributes" : {
                        "POSITION" : 4,
                        "NORMAL" : 5,
                        "TEXCOORD_0" : 6
                    },
                    "indices" : 7,
                    "material" : 1
                }
            ]
        },
        {
            "name" : "Torus.002",
            "primitives" : [
                {
                    "attributes" : {
                        "POSITION" : 8,
                        "NORMAL" : 9,
                        "TEXCOORD_0" : 10
                    },
                    "indices" : 11,
                    "material" : 1
                }
            ]
        }
    ],
    "accessors" : [
        {
            "bufferView" : 0,
            "componentType" : 5126,
            "count" : 3032,
            "max" : [
                1.2920180559158325,
                0.25,
                1.2928975820541382
            ],
            "min" : [
                -1.2920180559158325,
                -1.2232863903045654,
                -1.2928975820541382
            ],
            "type" : "VEC3"
        },
        {
            "bufferView" : 1,
            "componentType" : 5126,
            "count" : 3032,
            "type" : "VEC3"
        },
        {
            "bufferView" : 2,
            "componentType" : 5126,
            "count" : 3032,
            "type" : "VEC2"
        },
        {
            "bufferView" : 3,
            "componentType" : 5123,
            "count" : 16848,
            "type" : "SCALAR"
        },
        {
            "bufferView" : 4,
            "componentType" : 5126,
            "count" : 16,
            "max" : [
                -0.9651194214820862,
                0,
                0.7609517574310303
            ],
            "min" : [
                -1.2403310537338257,
                -0.7703139781951904,
                -0.7609517574310303
            ],
            "type" : "VEC3"
        },
        {
            "bufferView" : 5,
            "componentType" : 5126,
            "count" : 16,
            "type" : "VEC3"
        },
        {
            "bufferView" : 6,
            "componentType" : 5126,
            "count" : 16,
            "type" : "VEC2"
        },
        {
            "bufferView" : 7,
            "componentType" : 5123,
            "count" : 24,
            "type" : "SCALAR"
        },
        {
            "bufferView" : 8,
            "componentType" : 5126,
            "count" : 396,
            "max" : [
                1.25,
                0.25,
                1.2403311729431152
            ],
            "min" : [
                -1.25,
                -0.8618203401565552,
                -1.2403311729431152
            ],
            "type" : "VEC3"
        },
        {
            "bufferView" : 9,
            "componentType" : 5126,
            "count" : 396,
            "type" : "VEC3"
        },
        {
            "bufferView" : 10,
            "componentType" : 5126,
            "count" : 396,
            "type" : "VEC2"
        },
        {
            "bufferView" : 11,
            "componentType" : 5123,
            "count" : 1476,
            "type" : "SCALAR"
        }
    ],
    "bufferViews" : [
        {
            "buffer" : 0,
            "byteLength" : 36384,
            "byteOffset" : 0
        },
        {
            "buffer" : 0,
            "byteLength" : 36384,
            "byteOffset" : 36384
        },
        {
            "buffer" : 0,
            "byteLength" : 24256,
            "byteOffset" : 72768
        },
        {
            "buffer" : 0,
            "byteLength" : 33696,
            "byteOffset" : 97024
        },
        {
            "buffer" : 0,
            "byteLength" : 192,
            "byteOffset" : 130720
        },
        {
            "buffer" : 0,
            "byteLength" : 192,
            "byteOffset" : 130912
        },
        {
            "buffer" : 0,
            "byteLength" : 128,
            "byteOffset" : 131104
        },
        {
            "buffer" : 0,
            "byteLength" : 48,
            "byteOffset" : 131232
        },
        {
            "buffer" : 0,
            "byteLength" : 4752,
            "byteOffset" : 131280
        },
        {
            "buffer" : 0,
            "byteLength" : 4752,
            "byteOffset" : 136032
        },
        {
            "buffer" : 0,
            "byteLength" : 3168,
            "byteOffset" : 140784
        },
        {
            "buffer" : 0,
            "byteLength" : 2952,
            "byteOffset" : 143952
        }
    ],
    "buffers" : [
        {
            "byteLength" : 146904,
            "uri" : "data:application/octet-stream;base64,"
        }
    ]
}
